<mxfile host="Electron" modified="2023-08-15T19:01:51.562Z" agent="Mozilla/5.0 (Windows NT 10.0; Win64; x64) AppleWebKit/537.36 (KHTML, like Gecko) draw.io/21.6.8 Chrome/114.0.5735.289 Electron/25.5.0 Safari/537.36" etag="utNnpxohFATMhTkzxBtw" version="21.6.8" type="device">
  <diagram name="Страница — 1" id="RkdarKsBaK-Lod6Ft2Dd">
    <mxGraphModel dx="864" dy="516" grid="1" gridSize="10" guides="1" tooltips="1" connect="1" arrows="1" fold="1" page="1" pageScale="1" pageWidth="827" pageHeight="1169" math="0" shadow="0">
      <root>
        <mxCell id="0" />
        <mxCell id="1" parent="0" />
        <mxCell id="56NuioGnLlPh08Ld2QLK-8" style="edgeStyle=orthogonalEdgeStyle;rounded=0;orthogonalLoop=1;jettySize=auto;html=1;exitX=0.5;exitY=1;exitDx=0;exitDy=0;" edge="1" parent="1" source="56NuioGnLlPh08Ld2QLK-1" target="56NuioGnLlPh08Ld2QLK-2">
          <mxGeometry relative="1" as="geometry" />
        </mxCell>
        <mxCell id="56NuioGnLlPh08Ld2QLK-1" value="start&amp;nbsp;" style="ellipse;whiteSpace=wrap;html=1;" vertex="1" parent="1">
          <mxGeometry x="320" y="80" width="120" height="80" as="geometry" />
        </mxCell>
        <mxCell id="56NuioGnLlPh08Ld2QLK-9" style="edgeStyle=orthogonalEdgeStyle;rounded=0;orthogonalLoop=1;jettySize=auto;html=1;exitX=0.5;exitY=1;exitDx=0;exitDy=0;" edge="1" parent="1" source="56NuioGnLlPh08Ld2QLK-2" target="56NuioGnLlPh08Ld2QLK-3">
          <mxGeometry relative="1" as="geometry" />
        </mxCell>
        <mxCell id="56NuioGnLlPh08Ld2QLK-2" value="n count" style="shape=parallelogram;perimeter=parallelogramPerimeter;whiteSpace=wrap;html=1;fixedSize=1;" vertex="1" parent="1">
          <mxGeometry x="320" y="200" width="120" height="60" as="geometry" />
        </mxCell>
        <mxCell id="56NuioGnLlPh08Ld2QLK-4" style="edgeStyle=orthogonalEdgeStyle;rounded=0;orthogonalLoop=1;jettySize=auto;html=1;exitX=0;exitY=0.5;exitDx=0;exitDy=0;entryX=0.45;entryY=-0.033;entryDx=0;entryDy=0;entryPerimeter=0;" edge="1" parent="1" source="56NuioGnLlPh08Ld2QLK-3" target="56NuioGnLlPh08Ld2QLK-5">
          <mxGeometry relative="1" as="geometry">
            <mxPoint x="210" y="340" as="targetPoint" />
          </mxGeometry>
        </mxCell>
        <mxCell id="56NuioGnLlPh08Ld2QLK-11" value="false" style="edgeLabel;html=1;align=center;verticalAlign=middle;resizable=0;points=[];" vertex="1" connectable="0" parent="56NuioGnLlPh08Ld2QLK-4">
          <mxGeometry x="-0.4554" y="1" relative="1" as="geometry">
            <mxPoint as="offset" />
          </mxGeometry>
        </mxCell>
        <mxCell id="56NuioGnLlPh08Ld2QLK-7" style="edgeStyle=orthogonalEdgeStyle;rounded=0;orthogonalLoop=1;jettySize=auto;html=1;exitX=1;exitY=0.5;exitDx=0;exitDy=0;entryX=0.5;entryY=0;entryDx=0;entryDy=0;" edge="1" parent="1" source="56NuioGnLlPh08Ld2QLK-3" target="56NuioGnLlPh08Ld2QLK-6">
          <mxGeometry relative="1" as="geometry" />
        </mxCell>
        <mxCell id="56NuioGnLlPh08Ld2QLK-10" value="true" style="edgeLabel;html=1;align=center;verticalAlign=middle;resizable=0;points=[];" vertex="1" connectable="0" parent="56NuioGnLlPh08Ld2QLK-7">
          <mxGeometry x="-0.4818" y="-3" relative="1" as="geometry">
            <mxPoint as="offset" />
          </mxGeometry>
        </mxCell>
        <mxCell id="56NuioGnLlPh08Ld2QLK-3" value="a+b&amp;gt;0&lt;br&gt;a*b&amp;gt;0" style="rhombus;whiteSpace=wrap;html=1;" vertex="1" parent="1">
          <mxGeometry x="340" y="300" width="80" height="80" as="geometry" />
        </mxCell>
        <mxCell id="56NuioGnLlPh08Ld2QLK-5" value="sert odenilmir" style="rounded=1;whiteSpace=wrap;html=1;" vertex="1" parent="1">
          <mxGeometry x="160" y="440" width="120" height="60" as="geometry" />
        </mxCell>
        <mxCell id="56NuioGnLlPh08Ld2QLK-13" style="edgeStyle=orthogonalEdgeStyle;rounded=0;orthogonalLoop=1;jettySize=auto;html=1;exitX=0.5;exitY=1;exitDx=0;exitDy=0;" edge="1" parent="1" source="56NuioGnLlPh08Ld2QLK-6" target="56NuioGnLlPh08Ld2QLK-12">
          <mxGeometry relative="1" as="geometry" />
        </mxCell>
        <mxCell id="56NuioGnLlPh08Ld2QLK-6" value="duzgun eded daxil edin" style="rounded=1;whiteSpace=wrap;html=1;" vertex="1" parent="1">
          <mxGeometry x="480" y="440" width="120" height="60" as="geometry" />
        </mxCell>
        <mxCell id="56NuioGnLlPh08Ld2QLK-12" value="" style="ellipse;whiteSpace=wrap;html=1;" vertex="1" parent="1">
          <mxGeometry x="310" y="550" width="120" height="80" as="geometry" />
        </mxCell>
      </root>
    </mxGraphModel>
  </diagram>
</mxfile>
